<svg xmlns="http://www.w3.org/2000/svg" fill="none" viewBox="0 0 22 32">
    <style>
        svg path {
            fill: #595653;
        }

        @media (prefers-color-scheme: dark) {
            svg path {
                fill: #FFF;
            }
        }
    </style>
    <path fill="#595653" d="M20.8163 29.9437h-.5629c0-.006-.0028-.0119-.0039-.0176l-.0154-.0688c-.0099-.0453-.0206-.0902-.0316-.1347-.0047-.021-.0099-.042-.015-.0629-.0146-.0588-.03-.1175-.0458-.1763l-.0047-.0168c-.0174-.0637-.0356-.127-.0545-.1901l-.019-.061c-.013-.0435-.0268-.0865-.0394-.1295-.0075-.0236-.0154-.0468-.0229-.07-.0138-.0416-.0281-.0831-.0427-.1243-.0075-.0217-.0154-.0438-.0229-.0651-.0184-.0516-.0373-.1029-.0568-.1538-.0043-.0109-.0079-.0213-.0122-.0322-.0229-.0599-.047-.1194-.0715-.1789-.0087-.0217-.0178-.043-.0268-.0643-.0166-.0375-.0332-.0786-.0502-.1176l-.0319-.0722a7.380519 7.380519 0 0 0-.051-.1123c-.0106-.0232-.0217-.0467-.0327-.0699-.0202-.0431-.0395-.0857-.062-.128-.0083-.0161-.0158-.0326-.0241-.0491-.028-.0557-.0568-.1122-.086-.1661l-.0395-.07-.0557-.1014-.0434-.0749c-.0182-.0314-.0363-.0629-.0549-.0943-.0146-.0254-.0296-.0509-.0446-.0748-.0205-.0341-.0394-.0674-.0619-.1011l-.0569-.0913c-.0268-.0419-.0537-.0842-.0813-.1257-.0174-.0262-.0347-.0521-.0525-.0779-.0178-.0258-.0371-.0554-.0561-.0827-.0189-.0273-.0394-.0546-.0568-.0816-.0174-.0269-.0363-.0512-.0549-.0748-.0185-.0236-.0395-.055-.0596-.0824l-.0556-.0748c-.0395-.0498-.0758-.0996-.1145-.1497l-.0541-.0685c-.0229-.0288-.0466-.0573-.0699-.0857l-.0521-.0629c-.0241-.0288-.0485-.0572-.073-.086l-.0513-.0592-.0766-.0868-.0454-.0501c-.0944-.1037-.1911-.2059-.2901-.3054l-.0435-.0438-.0908-.0887-.0446-.0427c-.0316-.0303-.0631-.0602-.0951-.0898l-.0328-.0299c-.1117-.1029-.2266-.2032-.3434-.2994l-.032-.0266c-.036-.0299-.0723-.0595-.1089-.0887l-.0363-.0292c-.0395-.0299-.0754-.0595-.1137-.0891l-.0194-.0146c-.1291-.0988-.2613-.1949-.3947-.2874l-.0186-.0131a9.71259 9.71259 0 0 0-.1271-.0853l-.028-.0183c-.0434-.0289-.0873-.0569-.1311-.085l-.0075-.0045c-.1452-.092-.2933-.1802-.4441-.2646l-.0059-.0037c-.0477-.0266-.0955-.0524-.1433-.0782l-.0209-.0113c-.2542-.1359-.5153-.2607-.7832-.3742l-.0166-.0071c-.0706-.03-.1417-.0588-.2135-.0872h1.4128c.2301 0 .4168-.2511.4168-.5614 0-.3102-.1867-.5613-.4168-.5613h-.4208c.026-.0629.0549-.134.086-.2141.3979-.235 1.0982-.7358 1.793-1.6557l.0055-.0071c.0527-.0688.1044-.1401.1552-.2137l.0102-.0146c.0505-.0722.1011-.1467.1508-.2245l.0134-.0206c.0237-.0374.0474-.0748.0711-.1123 0 0 0-.003.0028-.0048.0244-.0375.0485-.0786.0726-.1187l.0154-.0258c.0205-.0344.0414-.0696.0616-.1051.0039-.0064.0079-.0128.0114-.0195.0233-.0404.0466-.0816.0695-.1231l.0158-.0289c.0189-.0344.0375-.0692.056-.1044.0056-.0097.0111-.0198.0162-.0299.0221-.0423.0442-.085.0663-.1284l.0154-.0303c.0174-.0352.0352-.0711.0525-.107l.019-.0374c.0213-.0442.0422-.0891.0631-.1344l.0131-.0288c.0173-.0374.0343-.0749.0513-.1123l.0201-.0449c.0197-.0453.0395-.0909.0584-.137.0036-.0082.0071-.0168.0103-.025.0178-.0423.0351-.0854.0525-.1288l.0197-.0494c.0162-.0412.0324-.0827.0482-.1242l.0118-.0315c.0186-.0494.0367-.0999.0549-.1497l.019-.0531c.0142-.0397.028-.0801.0418-.1205.0051-.015.0103-.03.015-.0449.0174-.0517.0347-.1044.0517-.1572.0055-.0183.0115-.0374.017-.0547l.0395-.1231c.0051-.0179.0106-.0374.0158-.0535.0161-.0543.0323-.1096.0477-.1654.0051-.0176.0099-.0356.0146-.0535.0119-.0431.0237-.0861.0352-.1299.0051-.0198.0102-.0397.0157-.0595.0147-.0576.0293-.1156.0435-.1744l.0118-.049c.0111-.0468.0221-.094.0328-.1415l.0142-.0636c.0134-.061.0268-.122.0395-.1841.0027-.012.0051-.0244.0075-.0375.011-.0535.0217-.1077.0319-.162.0044-.0221.0083-.0442.0127-.0662.0102-.0558.0201-.1123.03-.1681.0019-.012.0043-.0236.0063-.0352.011-.0658.0218-.1322.0324-.1991.0035-.0224.0071-.0449.0102-.0677.0083-.0543.0162-.1089.0241-.1643l.0071-.0509c.0095-.0688.0186-.1381.0272-.2084.0028-.0221.0052-.0442.0079-.0667.0069-.0558.0132-.112.019-.1684.0024-.0202.0047-.04.0067-.0602.0076-.0724.0147-.1453.0213-.2189 0-.0206.0036-.0412.0051-.0622.0052-.0591.0103-.1186.0146-.1785 0-.0221.0036-.0441.0052-.0662.0055-.0764.0106-.1532.0154-.2306 0-.0175 0-.0374.0027-.0531.0036-.0644.0071-.1291.0099-.1942 0-.0236 0-.0472.0032-.0708.0031-.0804.0063-.1613.0087-.2432v-.0345c.0021-.0728.0036-.1464.0047-.2208v-.6695c0-.0748-.0032-.1534-.0051-.2313v-.0423c-.0028-.0898-.0064-.1807-.0099-.272 0-.0236-.0024-.0476-.0032-.0711-.0034-.0769-.0073-.1542-.0118-.2321 0-.0191 0-.0374-.0032-.058-.0055-.0935-.0116-.1878-.0181-.2829l-.0048-.0662c-.0059-.0794-.0118-.1591-.0185-.2396 0-.0232-.0036-.0464-.0055-.0696-.0083-.0973-.0174-.1957-.0269-.2945 0-.0187-.0039-.0374-.0055-.0565-.0083-.0842-.0174-.1692-.0265-.2549-.0027-.0258-.0055-.0512-.0086-.0771-.0111-.1018-.0229-.2039-.0356-.3076 0-.0127-.0035-.0254-.0051-.0374-.0113-.09283-.0233-.18614-.0359-.27995-.004-.02769-.0075-.05539-.0115-.08308-.0147-.10628-.0298-.21345-.0454-.32148C17.5983-1.31572 6.40876.413656 6.40876.413656l.35843 2.289624L0 9.48083l.295667 2.61707 2.563503 1.497c.11428-.2754.261-.5376.43738-.7818 1.654-1.8087 4.86292-3.2286 5.7815-3.52313.18396-.05876.28857-.08832.28857-.08832C4.97266 14.593 5.47241 20.7695 5.66821 22.2418c-.20369.0374-.3612.2706-.3612.555 0 .3099.18672.5614.41686.5614h1.41281c-2.34969.9324-4.21483 2.7083-5.1882 4.94a.103349.103349 0 0 1-.00394.009c-.07185.1656-.13869.3337-.20053.5041.0001.0017.0001.0035 0 .0052-.01658.0464-.03277.0928-.04856.1396-.00592.0168-.01184.0337-.01737.0509a2.61416 2.61416 0 0 0-.03947.1269c-.00711.0217-.01382.0438-.02053.0655-.01263.04-.02487.0804-.03671.1208l-.02132.0749c-.01105.0374-.0221.0775-.03237.1164-.0075.0277-.0146.055-.02171.0827-.00947.0374-.01934.0748-.02842.1123-.00908.0374-.01777.0748-.02645.1145-.00869.0396-.01974.0861-.02921.1295H.85858c-.108322-.0023-.216029.016-.316802.0537-.100772.0377-.192578.0942-.270031.166-.077453.0718-.138997.1576-.18101.2523-.042014.0947-.063656.1964-.063656.2991 0 .1027.021642.2044.063656.2991.042013.0947.103557.1804.18101.2523.077453.0718.169259.1282.270031.166.100773.0377.20848.056.316802.0537H20.8234c.1084.0023.2161-.016.3168-.0537.1008-.0378.1926-.0942.2701-.166.0774-.0719.139-.1576.181-.2523.042-.0947.0636-.1964.0636-.2991 0-.1027-.0216-.2044-.0636-.2991-.042-.0947-.1036-.1805-.181-.2523-.0775-.0718-.1693-.1283-.2701-.166-.1007-.0377-.2084-.056-.3168-.0537l-.0071-.0068Z"/>
</svg>