<svg xmlns="http://www.w3.org/2000/svg" fill="none" viewBox="0 0 246 36">
    <path fill="#595653" d="M21.3163 31.9437h-.5629c0-.006-.0028-.0119-.0039-.0176l-.0154-.0688c-.0099-.0453-.0206-.0902-.0316-.1347-.0047-.021-.0099-.042-.015-.0629-.0146-.0588-.03-.1175-.0458-.1763l-.0047-.0168c-.0174-.0637-.0356-.127-.0545-.1901l-.019-.061c-.013-.0435-.0268-.0865-.0394-.1295-.0075-.0236-.0154-.0468-.0229-.07-.0138-.0416-.0281-.0831-.0427-.1243-.0075-.0217-.0154-.0438-.0229-.0651-.0184-.0516-.0373-.1029-.0568-.1538-.0043-.0109-.0079-.0213-.0122-.0322-.0229-.0599-.047-.1194-.0715-.1789-.0087-.0217-.0178-.043-.0268-.0643-.0166-.0375-.0332-.0786-.0502-.1176l-.0319-.0722a7.380519 7.380519 0 0 0-.051-.1123c-.0106-.0232-.0217-.0467-.0327-.0699-.0202-.0431-.0395-.0857-.062-.128-.0083-.0161-.0158-.0326-.0241-.0491-.028-.0557-.0568-.1122-.086-.1661l-.0395-.07-.0557-.1014-.0434-.0749c-.0182-.0314-.0363-.0629-.0549-.0943-.0146-.0254-.0296-.0509-.0446-.0748-.0205-.0341-.0394-.0674-.0619-.1011l-.0569-.0913c-.0268-.0419-.0537-.0842-.0813-.1257-.0174-.0262-.0347-.0521-.0525-.0779-.0178-.0258-.0371-.0554-.0561-.0827-.0189-.0273-.0394-.0546-.0568-.0816-.0174-.0269-.0363-.0512-.0549-.0748-.0185-.0236-.0395-.055-.0596-.0824l-.0556-.0748c-.0395-.0498-.0758-.0996-.1145-.1497l-.0541-.0685c-.0229-.0288-.0466-.0573-.0699-.0857l-.0521-.0629c-.0241-.0288-.0485-.0572-.073-.086l-.0513-.0592-.0766-.0868-.0454-.0501c-.0944-.1037-.1911-.2059-.2901-.3054l-.0435-.0438-.0908-.0887-.0446-.0427c-.0316-.0303-.0631-.0602-.0951-.0898l-.0328-.0299c-.1117-.1029-.2266-.2032-.3434-.2994l-.032-.0266c-.036-.0299-.0723-.0595-.1089-.0887l-.0363-.0292c-.0395-.0299-.0754-.0595-.1137-.0891l-.0194-.0146c-.1291-.0988-.2613-.1949-.3947-.2874l-.0186-.0131a9.71259 9.71259 0 0 0-.1271-.0853l-.028-.0183c-.0434-.0289-.0873-.0569-.1311-.085l-.0075-.0045c-.1452-.092-.2933-.1802-.4441-.2646l-.0059-.0037c-.0477-.0266-.0955-.0524-.1433-.0782l-.0209-.0113c-.2542-.1359-.5153-.2607-.7832-.3742l-.0166-.0071c-.0706-.03-.1417-.0588-.2135-.0872h1.4128c.2301 0 .4168-.2511.4168-.5614 0-.3102-.1867-.5613-.4168-.5613h-.4208c.026-.0629.0549-.134.086-.2141.3979-.235 1.0982-.7358 1.793-1.6557l.0055-.0071c.0527-.0688.1044-.1401.1552-.2137l.0102-.0146c.0505-.0722.1011-.1467.1508-.2245l.0134-.0206c.0237-.0374.0474-.0748.0711-.1123 0 0 0-.003.0028-.0048.0244-.0375.0485-.0786.0726-.1187l.0154-.0258c.0205-.0344.0414-.0696.0616-.1051.0039-.0064.0079-.0128.0114-.0195.0233-.0404.0466-.0816.0695-.1231l.0158-.0289c.0189-.0344.0375-.0692.056-.1044.0056-.0097.0111-.0198.0162-.0299.0221-.0423.0442-.085.0663-.1284l.0154-.0303c.0174-.0352.0352-.0711.0525-.107l.019-.0374c.0213-.0442.0422-.0891.0631-.1344l.0131-.0288c.0173-.0374.0343-.0749.0513-.1123l.0201-.0449c.0197-.0453.0395-.0909.0584-.137.0036-.0082.0071-.0168.0103-.025.0178-.0423.0351-.0854.0525-.1288l.0197-.0494c.0162-.0412.0324-.0827.0482-.1242l.0118-.0315c.0186-.0494.0367-.0999.0549-.1497l.019-.0531c.0142-.0397.028-.0801.0418-.1205.0051-.015.0103-.03.015-.0449.0174-.0517.0347-.1044.0517-.1572.0055-.0183.0115-.0374.017-.0547l.0395-.1231c.0051-.0179.0106-.0374.0158-.0535.0161-.0543.0323-.1096.0477-.1654.0051-.0176.0099-.0356.0146-.0535.0119-.0431.0237-.0861.0352-.1299.0051-.0198.0102-.0397.0157-.0595.0147-.0576.0293-.1156.0435-.1744l.0118-.049c.0111-.0468.0221-.094.0328-.1415l.0142-.0636c.0134-.061.0268-.122.0395-.1841.0027-.012.0051-.0244.0075-.0375.011-.0535.0217-.1077.0319-.162.0044-.0221.0083-.0442.0127-.0662.0102-.0558.0201-.1123.03-.1681.0019-.012.0043-.0236.0063-.0352.011-.0658.0218-.1322.0324-.1991.0035-.0224.0071-.0449.0102-.0677.0083-.0543.0162-.1089.0241-.1643l.0071-.0509c.0095-.0688.0186-.1381.0272-.2084.0028-.0221.0052-.0442.0079-.0667.0069-.0558.0132-.112.019-.1684.0024-.0202.0047-.04.0067-.0602.0076-.0724.0147-.1453.0213-.2189 0-.0206.0036-.0412.0051-.0622.0052-.0591.0103-.1186.0146-.1785 0-.0221.0036-.0441.0052-.0662.0055-.0764.0106-.1532.0154-.2306 0-.0175 0-.0374.0027-.0531.0036-.0644.0071-.1291.0099-.1942 0-.0236 0-.0472.0032-.0708.0031-.0804.0063-.1613.0087-.2432v-.0345c.0021-.0728.0036-.1464.0047-.2208v-.6695c0-.0748-.0032-.1534-.0051-.2313v-.0423c-.0028-.0898-.0064-.1807-.0099-.272 0-.0236-.0024-.0476-.0032-.0711-.0034-.0769-.0073-.1542-.0118-.2321 0-.0191 0-.0374-.0032-.058-.0055-.0935-.0116-.1878-.0181-.2829l-.0048-.0662c-.0059-.0794-.0118-.1591-.0185-.2396 0-.0232-.0036-.0464-.0055-.0696-.0083-.0973-.0174-.1957-.0269-.2945 0-.0187-.0039-.0374-.0055-.0565-.0083-.0842-.0174-.1692-.0265-.2549-.0027-.0258-.0055-.0512-.0086-.0771-.0111-.1018-.0229-.2039-.0356-.3076 0-.0127-.0035-.0254-.0051-.0374-.0113-.0928-.0233-.1861-.0359-.2799-.004-.0277-.0075-.0554-.0115-.0831-.0147-.1063-.0298-.2135-.0454-.3215C18.0983.684277 6.90876 2.41366 6.90876 2.41366l.35843 2.28962L.5 11.4808l.295667 2.6171 2.563503 1.497c.11428-.2754.261-.5376.43738-.7818 1.654-1.8087 4.86292-3.2286 5.7815-3.5231.18396-.0588.28857-.0884.28857-.0884-4.39396 5.3914-3.89421 11.5679-3.69841 13.0402-.20369.0374-.3612.2706-.3612.555 0 .3099.18672.5614.41686.5614h1.41281c-2.34969.9324-4.21483 2.7083-5.1882 4.94a.103349.103349 0 0 1-.00394.009c-.07185.1656-.13869.3337-.20053.5041.0001.0017.0001.0035 0 .0052-.01658.0464-.03277.0928-.04856.1396-.00592.0168-.01184.0337-.01737.0509a2.61416 2.61416 0 0 0-.03947.1269c-.00711.0217-.01382.0438-.02053.0655-.01263.04-.02487.0804-.03671.1208l-.02132.0749c-.01105.0374-.0221.0775-.03237.1164-.0075.0277-.0146.055-.02171.0827-.00947.0374-.01934.0748-.02842.1123-.00908.0374-.01777.0748-.02645.1145-.00869.0396-.01974.0861-.02921.1295h-.56331c-.10832-.0023-.21603.016-.3168.0537-.100774.0377-.19258.0942-.270033.166-.077453.0718-.138997.1576-.181011.2523-.042013.0947-.063655.1964-.063655.2991 0 .1027.021642.2044.063655.2991.042014.0947.103558.1804.181011.2523.077453.0718.169259.1282.270033.166.10077.0377.20848.056.3168.0537H21.3234c.1084.0023.2161-.016.3168-.0537.1008-.0378.1926-.0942.2701-.166.0774-.0719.139-.1576.181-.2523.042-.0947.0636-.1964.0636-.2991 0-.1027-.0216-.2044-.0636-.2991-.042-.0947-.1036-.1805-.181-.2523-.0775-.0718-.1693-.1283-.2701-.166-.1007-.0377-.2084-.056-.3168-.0537l-.0071-.0068Z"/>
    <path fill="#595653" d="M44.7035 31.9437h-.5629c0-.006-.0027-.0119-.0039-.0176l-.0154-.0688c-.0099-.0453-.0206-.0902-.0316-.1347-.0047-.021-.0099-.042-.015-.0629-.0146-.0588-.03-.1175-.0458-.1763l-.0047-.0168c-.0174-.0637-.0356-.127-.0545-.1901l-.019-.061c-.013-.0435-.0268-.0865-.0394-.1295-.0075-.0236-.0154-.0468-.0229-.07-.0138-.0416-.0281-.0831-.0427-.1243-.0075-.0217-.0154-.0438-.0229-.0651-.0184-.0516-.0373-.1029-.0568-.1538-.0043-.0109-.0079-.0213-.0122-.0322-.0229-.0599-.047-.1194-.0715-.1789-.0087-.0217-.0177-.043-.0268-.0643-.0166-.0375-.0332-.0786-.0502-.1176l-.0319-.0722a7.380519 7.380519 0 0 0-.051-.1123c-.0106-.0232-.0217-.0467-.0327-.0699-.0202-.0431-.0395-.0857-.062-.128-.0083-.0161-.0158-.0326-.0241-.0491-.028-.0557-.0568-.1122-.086-.1661l-.0395-.07-.0557-.1014-.0434-.0749c-.0182-.0314-.0363-.0629-.0549-.0943-.0146-.0254-.0296-.0509-.0446-.0748-.0205-.0341-.0394-.0674-.0619-.1011l-.0569-.0913c-.0268-.0419-.0537-.0842-.0813-.1257-.0174-.0262-.0347-.0521-.0525-.0779-.0178-.0258-.0371-.0554-.0561-.0827-.0189-.0273-.0394-.0546-.0568-.0816-.0174-.0269-.0363-.0512-.0549-.0748-.0185-.0236-.0395-.055-.0596-.0824l-.0556-.0748c-.0395-.0498-.0758-.0996-.1145-.1497l-.0541-.0685c-.0229-.0288-.0466-.0573-.0699-.0857l-.0521-.0629c-.0241-.0288-.0485-.0572-.073-.086l-.0513-.0592-.0766-.0868-.0454-.0501c-.0943-.1037-.1911-.2059-.2901-.3054l-.0435-.0438-.0908-.0887-.0446-.0427c-.0315-.0303-.0631-.0602-.0951-.0898l-.0328-.0299c-.1117-.1029-.2265-.2032-.3434-.2994l-.032-.0266c-.036-.0299-.0723-.0595-.1089-.0887l-.0363-.0292c-.0395-.0299-.0754-.0595-.1137-.0891l-.0194-.0146c-.1291-.0988-.2613-.1949-.3947-.2874l-.0186-.0131c-.0422-.0288-.0844-.0572-.1271-.0853l-.028-.0183c-.0434-.0289-.0872-.0569-.1311-.085l-.0075-.0045c-.1452-.092-.2933-.1802-.4441-.2646l-.0059-.0037c-.0477-.0266-.0955-.0524-.1433-.0782l-.0209-.0113c-.2542-.1359-.5153-.2607-.7832-.3742l-.0166-.0071c-.0706-.03-.1417-.0588-.2135-.0872h1.4128c.2301 0 .4168-.2511.4168-.5614 0-.3102-.1867-.5613-.4168-.5613h-.4208c.026-.0629.0549-.134.086-.2141.398-.235 1.0982-.7358 1.793-1.6557l.0055-.0071c.0527-.0688.1044-.1401.1552-.2137l.0102-.0146c.0506-.0722.1011-.1467.1508-.2245l.0134-.0206c.0237-.0374.0474-.0748.0711-.1123 0 0 0-.003.0028-.0048.0244-.0375.0485-.0786.0726-.1187l.0154-.0258c.0205-.0344.0414-.0696.0616-.1051.0039-.0064.0079-.0128.0114-.0195.0233-.0404.0466-.0816.0695-.1231l.0158-.0289c.0189-.0344.0375-.0692.056-.1044.0056-.0097.0111-.0198.0162-.0299.0221-.0423.0442-.085.0663-.1284l.0154-.0303c.0174-.0352.0352-.0711.0525-.107l.019-.0374c.0213-.0442.0422-.0891.0631-.1344l.0131-.0288c.0173-.0374.0343-.0749.0513-.1123l.0201-.0449c.0198-.0453.0395-.0909.0584-.137.0036-.0082.0071-.0168.0103-.025.0178-.0423.0351-.0854.0525-.1288l.0197-.0494c.0162-.0412.0324-.0827.0482-.1242l.0118-.0315c.0186-.0494.0368-.0999.0549-.1497l.019-.0531c.0142-.0397.028-.0801.0418-.1205.0051-.015.0103-.03.015-.0449.0174-.0517.0347-.1044.0517-.1572.0055-.0183.0115-.0374.017-.0547l.0395-.1231c.0051-.0179.0106-.0374.0158-.0535.0161-.0543.0323-.1096.0477-.1654.0052-.0176.0099-.0356.0146-.0535.0119-.0431.0237-.0861.0352-.1299.0051-.0198.0102-.0397.0158-.0595.0146-.0576.0292-.1156.0434-.1744l.0118-.049c.0111-.0468.0221-.094.0328-.1415l.0142-.0636c.0134-.061.0268-.122.0395-.1841.0027-.012.0051-.0244.0075-.0375.011-.0535.0217-.1077.0319-.162.0044-.0221.0083-.0442.0127-.0662.0102-.0558.0201-.1123.03-.1681.002-.012.0043-.0236.0063-.0352.011-.0658.0218-.1322.0324-.1991.0035-.0224.0071-.0449.0102-.0677.0083-.0543.0162-.1089.0241-.1643l.0071-.0509c.0095-.0688.0186-.1381.0272-.2084.0028-.0221.0052-.0442.0079-.0667.0069-.0558.0132-.112.019-.1684.0024-.0202.0047-.04.0067-.0602.0076-.0724.0147-.1453.0213-.2189 0-.0206.0036-.0412.0052-.0622.0051-.0591.0102-.1186.0146-.1785 0-.0221.0035-.0441.0051-.0662.0055-.0764.0106-.1532.0154-.2306 0-.0175 0-.0374.0027-.0531.0036-.0644.0072-.1291.0099-.1942 0-.0236 0-.0472.0032-.0708.0031-.0804.0063-.1613.0087-.2432v-.0345c.0021-.0728.0036-.1464.0047-.2208v-.6695c0-.0748-.0032-.1534-.0051-.2313v-.0423c-.0028-.0898-.0064-.1807-.0099-.272 0-.0236-.0024-.0476-.0032-.0711-.0034-.0769-.0073-.1542-.0118-.2321 0-.0191 0-.0374-.0032-.058-.0055-.0935-.0115-.1878-.0181-.2829l-.0048-.0662c-.0059-.0794-.0118-.1591-.0185-.2396 0-.0232-.0036-.0464-.0055-.0696-.0083-.0973-.0174-.1957-.0269-.2945 0-.0187-.0039-.0374-.0055-.0565-.0083-.0842-.0174-.1692-.0265-.2549-.0027-.0258-.0055-.0512-.0086-.0771-.0111-.1018-.0229-.2039-.0356-.3076 0-.0127-.0035-.0254-.0051-.0374-.0113-.0928-.0233-.1861-.0359-.2799-.004-.0277-.0075-.0554-.0115-.0831-.0147-.1063-.0298-.2135-.0454-.3215C41.4855.684277 30.296 2.41366 30.296 2.41366l.3584 2.28962-6.7672 6.77752.2957 2.6171 2.5635 1.497c.1143-.2754.261-.5376.4374-.7818 1.654-1.8087 4.8629-3.2286 5.7815-3.5231.1839-.0588.2885-.0884.2885-.0884-4.3939 5.3914-3.8942 11.5679-3.6984 13.0402-.2037.0374-.3612.2706-.3612.555 0 .3099.1867.5614.4169.5614h1.4128c-2.3497.9324-4.2148 2.7083-5.1882 4.94-.0012.003-.0025.006-.004.009-.0718.1656-.1386.3337-.2005.5041.0001.0017.0001.0035 0 .0052-.0166.0464-.0328.0928-.0485.1396-.006.0168-.0119.0337-.0174.0509-.0142.0419-.0274.0842-.0395.1269-.0071.0217-.0138.0438-.0205.0655-.0126.04-.0249.0804-.0367.1208l-.0213.0749c-.0111.0374-.0221.0775-.0324.1164-.0075.0277-.0146.055-.0217.0827-.0095.0374-.0194.0748-.0284.1123-.0091.0374-.0178.0748-.0265.1145-.0087.0396-.0197.0861-.0292.1295h-.5633c-.1083-.0023-.216.016-.3168.0537-.1008.0377-.1926.0942-.27.166-.0775.0718-.139.1576-.1811.2523-.042.0947-.0636.1964-.0636.2991 0 .1027.0216.2044.0636.2991.0421.0947.1036.1804.1811.2523.0774.0718.1692.1282.27.166.1008.0377.2085.056.3168.0537h19.9648c.1084.0023.2161-.016.3168-.0537.1008-.0378.1926-.0942.2701-.166.0774-.0719.139-.1576.181-.2523.042-.0947.0636-.1964.0636-.2991 0-.1027-.0216-.2044-.0636-.2991-.042-.0947-.1036-.1805-.181-.2523-.0775-.0718-.1693-.1283-.2701-.166-.1007-.0377-.2084-.056-.3168-.0537l-.0071-.0068Z"/>
    <path fill="#595653" d="M68.0912 31.9437h-.5629c0-.006-.0027-.0119-.0039-.0176l-.0154-.0688c-.0099-.0453-.0206-.0902-.0316-.1347-.0047-.021-.0099-.042-.015-.0629-.0146-.0588-.03-.1175-.0458-.1763l-.0047-.0168c-.0174-.0637-.0356-.127-.0545-.1901l-.019-.061c-.013-.0435-.0268-.0865-.0394-.1295-.0075-.0236-.0154-.0468-.0229-.07-.0138-.0416-.0281-.0831-.0427-.1243-.0075-.0217-.0154-.0438-.0229-.0651-.0184-.0516-.0373-.1029-.0568-.1538-.0043-.0109-.0079-.0213-.0122-.0322-.0229-.0599-.047-.1194-.0715-.1789-.0087-.0217-.0178-.043-.0268-.0643-.0166-.0375-.0332-.0786-.0502-.1176l-.0319-.0722a7.380519 7.380519 0 0 0-.051-.1123c-.0106-.0232-.0217-.0467-.0327-.0699-.0202-.0431-.0395-.0857-.062-.128-.0083-.0161-.0158-.0326-.0241-.0491-.028-.0557-.0568-.1122-.086-.1661l-.0395-.07-.0557-.1014-.0434-.0749c-.0182-.0314-.0363-.0629-.0549-.0943-.0146-.0254-.0296-.0509-.0446-.0748-.0205-.0341-.0394-.0674-.0619-.1011l-.0569-.0913c-.0268-.0419-.0537-.0842-.0813-.1257-.0174-.0262-.0347-.0521-.0525-.0779-.0178-.0258-.0371-.0554-.0561-.0827-.0189-.0273-.0394-.0546-.0568-.0816-.0174-.0269-.0363-.0512-.0549-.0748-.0185-.0236-.0395-.055-.0596-.0824l-.0556-.0748c-.0395-.0498-.0758-.0996-.1145-.1497l-.0541-.0685c-.0229-.0288-.0466-.0573-.0699-.0857l-.0521-.0629c-.0241-.0288-.0485-.0572-.073-.086l-.0513-.0592-.0766-.0868-.0454-.0501c-.0944-.1037-.1911-.2059-.2901-.3054l-.0435-.0438-.0908-.0887-.0446-.0427c-.0315-.0303-.0631-.0602-.0951-.0898l-.0328-.0299c-.1117-.1029-.2266-.2032-.3434-.2994l-.032-.0266c-.036-.0299-.0723-.0595-.1089-.0887l-.0363-.0292c-.0395-.0299-.0754-.0595-.1137-.0891l-.0194-.0146c-.1291-.0988-.2613-.1949-.3947-.2874l-.0186-.0131a9.71259 9.71259 0 0 0-.1271-.0853l-.028-.0183c-.0434-.0289-.0873-.0569-.1311-.085l-.0075-.0045c-.1452-.092-.2933-.1802-.4441-.2646l-.0059-.0037c-.0477-.0266-.0955-.0524-.1433-.0782l-.0209-.0113c-.2542-.1359-.5153-.2607-.7832-.3742l-.0166-.0071c-.0706-.03-.1417-.0588-.2135-.0872h1.4128c.2301 0 .4168-.2511.4168-.5614 0-.3102-.1867-.5613-.4168-.5613h-.4208c.026-.0629.0549-.134.086-.2141.3979-.235 1.0982-.7358 1.793-1.6557l.0055-.0071c.0527-.0688.1044-.1401.1552-.2137l.0102-.0146c.0505-.0722.1011-.1467.1508-.2245l.0134-.0206c.0237-.0374.0474-.0748.0711-.1123 0 0 0-.003.0028-.0048.0244-.0375.0485-.0786.0726-.1187l.0154-.0258c.0205-.0344.0414-.0696.0616-.1051.0039-.0064.0079-.0128.0114-.0195.0233-.0404.0466-.0816.0695-.1231l.0158-.0289c.0189-.0344.0375-.0692.056-.1044.0056-.0097.0111-.0198.0162-.0299.0221-.0423.0442-.085.0663-.1284l.0154-.0303c.0174-.0352.0352-.0711.0525-.107l.019-.0374c.0213-.0442.0422-.0891.0631-.1344l.0131-.0288c.0173-.0374.0343-.0749.0513-.1123l.0201-.0449c.0198-.0453.0395-.0909.0584-.137.0036-.0082.0071-.0168.0103-.025.0178-.0423.0351-.0854.0525-.1288l.0197-.0494c.0162-.0412.0324-.0827.0482-.1242l.0118-.0315c.0186-.0494.0368-.0999.0549-.1497l.019-.0531c.0142-.0397.028-.0801.0418-.1205.0051-.015.0103-.03.015-.0449.0174-.0517.0347-.1044.0517-.1572.0055-.0183.0115-.0374.017-.0547l.0395-.1231c.0051-.0179.0106-.0374.0158-.0535.0161-.0543.0323-.1096.0477-.1654.0052-.0176.0099-.0356.0146-.0535.0119-.0431.0237-.0861.0352-.1299.0051-.0198.0102-.0397.0157-.0595.0147-.0576.0293-.1156.0435-.1744l.0118-.049c.0111-.0468.0221-.094.0328-.1415l.0142-.0636c.0134-.061.0268-.122.0395-.1841.0027-.012.0051-.0244.0075-.0375.011-.0535.0217-.1077.0319-.162.0044-.0221.0083-.0442.0127-.0662.0102-.0558.0201-.1123.03-.1681.0019-.012.0043-.0236.0063-.0352.011-.0658.0218-.1322.0324-.1991.0035-.0224.0071-.0449.0102-.0677.0083-.0543.0162-.1089.0241-.1643l.0071-.0509c.0095-.0688.0186-.1381.0272-.2084.0028-.0221.0052-.0442.0079-.0667.0069-.0558.0132-.112.019-.1684.0024-.0202.0047-.04.0067-.0602.0076-.0724.0147-.1453.0213-.2189 0-.0206.0036-.0412.0051-.0622.0052-.0591.0103-.1186.0147-.1785 0-.0221.0035-.0441.0051-.0662.0055-.0764.0106-.1532.0154-.2306 0-.0175 0-.0374.0027-.0531.0036-.0644.0071-.1291.0099-.1942 0-.0236 0-.0472.0032-.0708.0031-.0804.0063-.1613.0087-.2432v-.0345c.0021-.0728.0036-.1464.0047-.2208v-.6695c0-.0748-.0032-.1534-.0051-.2313v-.0423c-.0028-.0898-.0064-.1807-.0099-.272 0-.0236-.0024-.0476-.0032-.0711-.0034-.0769-.0073-.1542-.0118-.2321 0-.0191 0-.0374-.0032-.058-.0055-.0935-.0115-.1878-.0181-.2829l-.0048-.0662c-.0059-.0794-.0118-.1591-.0185-.2396 0-.0232-.0036-.0464-.0055-.0696-.0083-.0973-.0174-.1957-.0269-.2945 0-.0187-.0039-.0374-.0055-.0565-.0083-.0842-.0174-.1692-.0265-.2549-.0027-.0258-.0055-.0512-.0086-.0771-.0111-.1018-.0229-.2039-.0356-.3076 0-.0127-.0035-.0254-.0051-.0374-.0113-.0928-.0233-.1861-.0359-.2799-.004-.0277-.0075-.0554-.0115-.0831-.0147-.1063-.0298-.2135-.0454-.3215C64.8732.684277 53.6837 2.41366 53.6837 2.41366l.3584 2.28962-6.7672 6.77752.2957 2.6171 2.5635 1.497c.1143-.2754.261-.5376.4374-.7818 1.654-1.8087 4.8629-3.2286 5.7815-3.5231.1839-.0588.2885-.0884.2885-.0884-4.3939 5.3914-3.8942 11.5679-3.6984 13.0402-.2037.0374-.3612.2706-.3612.555 0 .3099.1867.5614.4169.5614h1.4128c-2.3497.9324-4.2148 2.7083-5.1882 4.94-.0012.003-.0025.006-.004.009-.0718.1656-.1386.3337-.2005.5041.0001.0017.0001.0035 0 .0052-.0166.0464-.0328.0928-.0485.1396-.006.0168-.0119.0337-.0174.0509-.0142.0419-.0274.0842-.0395.1269-.0071.0217-.0138.0438-.0205.0655-.0127.04-.0249.0804-.0367.1208l-.0213.0749c-.0111.0374-.0222.0775-.0324.1164-.0075.0277-.0146.055-.0217.0827-.0095.0374-.0194.0748-.0284.1123-.0091.0374-.0178.0748-.0265.1145-.0087.0396-.0197.0861-.0292.1295h-.5633c-.1083-.0023-.216.016-.3168.0537-.1008.0377-.1926.0942-.2701.166-.0774.0718-.1389.1576-.181.2523-.042.0947-.0636.1964-.0636.2991 0 .1027.0216.2044.0636.2991.0421.0947.1036.1804.181.2523.0775.0718.1693.1282.2701.166.1008.0377.2085.056.3168.0537h19.9648c.1084.0023.2161-.016.3168-.0537.1008-.0378.1926-.0942.2701-.166.0774-.0719.139-.1576.181-.2523.042-.0947.0636-.1964.0636-.2991 0-.1027-.0216-.2044-.0636-.2991-.042-.0947-.1036-.1805-.181-.2523-.0775-.0718-.1693-.1283-.2701-.166-.1007-.0377-.2084-.056-.3168-.0537l-.0071-.0068Z"/>
    <path fill="#595653" d="M91.4784 31.9437h-.5629c0-.006-.0027-.0119-.0039-.0176l-.0154-.0688c-.0099-.0453-.0205-.0902-.0316-.1347-.0047-.021-.0099-.042-.015-.0629-.0146-.0588-.03-.1175-.0458-.1763l-.0047-.0168c-.0174-.0637-.0356-.127-.0545-.1901l-.019-.061c-.013-.0435-.0268-.0865-.0394-.1295-.0075-.0236-.0154-.0468-.0229-.07-.0138-.0416-.0281-.0831-.0427-.1243-.0075-.0217-.0154-.0438-.0229-.0651-.0184-.0516-.0373-.1029-.0568-.1538-.0043-.0109-.0079-.0213-.0122-.0322-.0229-.0599-.047-.1194-.0715-.1789-.0087-.0217-.0177-.043-.0268-.0643-.0166-.0375-.0332-.0786-.0502-.1176l-.0319-.0722a7.380519 7.380519 0 0 0-.051-.1123c-.0106-.0232-.0217-.0467-.0327-.0699-.0202-.0431-.0395-.0857-.062-.128-.0083-.0161-.0158-.0326-.0241-.0491-.028-.0557-.0568-.1122-.086-.1661l-.0395-.07-.0557-.1014-.0434-.0749c-.0181-.0314-.0363-.0629-.0549-.0943-.0146-.0254-.0296-.0509-.0446-.0748-.0205-.0341-.0394-.0674-.0619-.1011l-.0569-.0913c-.0268-.0419-.0537-.0842-.0813-.1257-.0174-.0262-.0347-.0521-.0525-.0779-.0178-.0258-.0371-.0554-.0561-.0827-.0189-.0273-.0394-.0546-.0568-.0816-.0174-.0269-.0363-.0512-.0549-.0748-.0185-.0236-.0394-.055-.0596-.0824l-.0556-.0748c-.0395-.0498-.0758-.0996-.1145-.1497l-.0541-.0685c-.0229-.0288-.0466-.0573-.0699-.0857l-.0521-.0629c-.0241-.0288-.0485-.0572-.073-.086l-.0513-.0592-.0766-.0868-.0454-.0501c-.0943-.1037-.1911-.2059-.2901-.3054l-.0435-.0438-.0908-.0887-.0446-.0427c-.0315-.0303-.0631-.0602-.0951-.0898l-.0328-.0299c-.1117-.1029-.2265-.2032-.3434-.2994l-.032-.0266c-.036-.0299-.0723-.0595-.1089-.0887l-.0363-.0292c-.0395-.0299-.0754-.0595-.1137-.0891l-.0194-.0146c-.129-.0988-.2613-.1949-.3947-.2874l-.0186-.0131c-.0422-.0288-.0844-.0572-.1271-.0853l-.028-.0183c-.0434-.0289-.0872-.0569-.1311-.085l-.0075-.0045c-.1452-.092-.2933-.1802-.4441-.2646l-.0059-.0037c-.0477-.0266-.0955-.0524-.1433-.0782l-.0209-.0113c-.2542-.1359-.5153-.2607-.7832-.3742l-.0166-.0071c-.0706-.03-.1417-.0588-.2135-.0872h1.4128c.2301 0 .4169-.2511.4169-.5614 0-.3102-.1868-.5613-.4169-.5613h-.4208c.026-.0629.0549-.134.086-.2141.398-.235 1.0982-.7358 1.793-1.6557l.0055-.0071c.0527-.0688.1044-.1401.1552-.2137l.0102-.0146c.0506-.0722.1011-.1467.1508-.2245l.0134-.0206c.0237-.0374.0474-.0748.0711-.1123 0 0 0-.003.0028-.0048.0244-.0375.0485-.0786.0726-.1187l.0154-.0258c.0205-.0344.0414-.0696.0616-.1051.0039-.0064.0079-.0128.0114-.0195.0233-.0404.0466-.0816.0695-.1231l.0158-.0289c.0189-.0344.0375-.0692.056-.1044.0056-.0097.0111-.0198.0162-.0299.0221-.0423.0442-.085.0663-.1284l.0154-.0303c.0174-.0352.0352-.0711.0525-.107l.019-.0374c.0213-.0442.0422-.0891.0631-.1344l.0131-.0288c.0173-.0374.0343-.0749.0513-.1123l.0201-.0449c.0198-.0453.0395-.0909.0584-.137.0036-.0082.0071-.0168.0103-.025.0178-.0423.0351-.0854.0525-.1288l.0197-.0494c.0162-.0412.0324-.0827.0482-.1242l.0119-.0315c.0185-.0494.0367-.0999.0548-.1497l.019-.0531c.0142-.0397.028-.0801.0418-.1205.0051-.015.0103-.03.015-.0449.0174-.0517.0348-.1044.0517-.1572.0056-.0183.0115-.0374.017-.0547l.0395-.1231c.0051-.0179.0106-.0374.0158-.0535.0161-.0543.0323-.1096.0477-.1654.0052-.0176.0099-.0356.0146-.0535.0119-.0431.0237-.0861.0352-.1299.0051-.0198.0102-.0397.0158-.0595.0146-.0576.0292-.1156.0434-.1744l.0118-.049c.0111-.0468.0221-.094.0328-.1415l.0142-.0636c.0134-.061.0268-.122.0395-.1841.0027-.012.0051-.0244.0075-.0375.011-.0535.0217-.1077.0319-.162.0044-.0221.0083-.0442.0127-.0662.0102-.0558.0201-.1123.03-.1681.002-.012.0043-.0236.0063-.0352.011-.0658.0218-.1322.0324-.1991.0035-.0224.0071-.0449.0102-.0677.0083-.0543.0162-.1089.0241-.1643l.0071-.0509c.0095-.0688.0186-.1381.0273-.2084.0027-.0221.0051-.0442.0078-.0667.0069-.0558.0132-.112.019-.1684.0024-.0202.0047-.04.0067-.0602.0076-.0724.0147-.1453.0213-.2189 0-.0206.0036-.0412.0052-.0622.0051-.0591.0102-.1186.0146-.1785 0-.0221.0035-.0441.0051-.0662.0055-.0764.0106-.1532.0154-.2306 0-.0175 0-.0374.0027-.0531.0036-.0644.0072-.1291.0099-.1942 0-.0236 0-.0472.0032-.0708.0031-.0804.0063-.1613.0087-.2432v-.0345c.0021-.0728.0036-.1464.0047-.2208v-.6695c0-.0748-.0032-.1534-.0051-.2313v-.0423c-.0028-.0898-.0063-.1807-.0099-.272 0-.0236-.0024-.0476-.0032-.0711-.0034-.0769-.0073-.1542-.0118-.2321 0-.0191 0-.0374-.0032-.058-.0055-.0935-.0115-.1878-.0181-.2829l-.0048-.0662c-.0059-.0794-.0118-.1591-.0185-.2396 0-.0232-.0036-.0464-.0055-.0696-.0083-.0973-.0174-.1957-.0269-.2945 0-.0187-.0039-.0374-.0055-.0565-.0083-.0842-.0174-.1692-.0265-.2549-.0027-.0258-.0055-.0512-.0086-.0771-.0111-.1018-.0229-.2039-.0356-.3076 0-.0127-.0035-.0254-.0051-.0374-.0113-.0928-.0233-.1861-.0359-.2799-.004-.0277-.0075-.0554-.0115-.0831-.0147-.1063-.0298-.2135-.0454-.3215C88.2604.684277 77.0709 2.41366 77.0709 2.41366l.3584 2.28962-6.7672 6.77752.2957 2.6171 2.5635 1.497c.1143-.2754.261-.5376.4374-.7818 1.654-1.8087 4.8629-3.2286 5.7815-3.5231.1839-.0588.2885-.0884.2885-.0884-4.3939 5.3914-3.8942 11.5679-3.6984 13.0402-.2037.0374-.3612.2706-.3612.555 0 .3099.1867.5614.4169.5614h1.4128c-2.3497.9324-4.2148 2.7083-5.1882 4.94-.0012.003-.0025.006-.004.009-.0718.1656-.1386.3337-.2005.5041.0001.0017.0001.0035 0 .0052-.0166.0464-.0327.0928-.0485.1396-.006.0168-.0119.0337-.0174.0509-.0142.0419-.0274.0842-.0395.1269-.0071.0217-.0138.0438-.0205.0655-.0126.04-.0249.0804-.0367.1208l-.0213.0749c-.0111.0374-.0221.0775-.0324.1164-.0075.0277-.0146.055-.0217.0827-.0095.0374-.0194.0748-.0284.1123-.0091.0374-.0178.0748-.0265.1145-.0087.0396-.0197.0861-.0292.1295h-.5633c-.1083-.0023-.216.016-.3168.0537-.1008.0377-.1926.0942-.27.166-.0775.0718-.139.1576-.1811.2523-.042.0947-.0636.1964-.0636.2991 0 .1027.0216.2044.0636.2991.0421.0947.1036.1804.1811.2523.0774.0718.1692.1282.27.166.1008.0377.2085.056.3168.0537h19.9648c.1084.0023.2161-.016.3168-.0537.1008-.0378.1926-.0942.2701-.166.0774-.0719.139-.1576.181-.2523.042-.0947.0636-.1964.0636-.2991 0-.1027-.0216-.2044-.0636-.2991-.042-.0947-.1036-.1805-.181-.2523-.0775-.0718-.1693-.1283-.2701-.166-.1007-.0377-.2084-.056-.3168-.0537l-.0071-.0068Z"/>
    <path fill="#595653" d="M99.8345 15V3.34411h2.9975v4.61241h.832l3.564-4.61241h3.263l-4.495 5.44497L110.658 15h-3.497l-3.497-4.9454h-.832V15h-2.9975Zm12.4885.2165c-.089 0-.216-.0056-.383-.0167-.155 0-.278-.0111-.366-.0333v-2.6309c.033.0111.116.0167.249.0167.222 0 .411-.0278.567-.0833.166-.0666.305-.1998.416-.3996.111-.2109.205-.5162.283-.9158.089-.3997.15-.9325.183-1.59856.033-.67716.05-1.52637.05-2.54765V3.34411h8.825V15h-3.014V5.79185h-3.014v1.54857c0 1.3876-.055 2.55319-.166 3.49678-.111.9325-.278 1.6873-.5 2.2646-.21.5772-.471 1.0212-.782 1.3321-.311.2997-.666.505-1.066.6161-.388.111-.816.1665-1.282.1665Zm14.494 0c-.122 0-.244-.0056-.366-.0167-.111 0-.211-.0166-.3-.0499v-2.4811l.267.0333c.089.0111.194.0167.316.0167.322 0 .572-.0222.749-.0666.178-.0555.317-.1443.417-.2664.1-.1333.183-.3109.249-.5329l-4.679-8.50879h3.048l3.097 5.9112 2.431-5.9112h2.931l-3.897 8.80849c-.255.5773-.511 1.0602-.766 1.4487-.244.3885-.527.7049-.849.9491-.311.2331-.683.3996-1.116.4996-.422.111-.932.1665-1.532.1665ZM136.308 15V3.34411h8.575V5.8085h-5.578v1.73173h1.915c1.621 0 2.814.33303 3.58.99908.777.65495 1.166 1.53749 1.166 2.64759 0 1.1989-.389 2.1369-1.166 2.814-.766.6661-1.959.9991-3.58.9991h-4.912Zm2.997-2.4644h1.582c.722 0 1.232-.1165 1.532-.3497.3-.2442.45-.5772.45-.999 0-.4219-.15-.7493-.45-.9825-.3-.24418-.81-.36629-1.532-.36629h-1.582v2.69749ZM105.896 33v-4.6457c-.289.1887-.672.3608-1.149.5162-.467.1443-1.022.2165-1.665.2165-1.21 0-2.126-.2998-2.748-.8992-.6105-.6106-.9157-1.5874-.9157-2.9306v-3.9131h2.9967v3.4135c0 .655.139 1.1268.417 1.4154.277.2775.666.4163 1.165.4163.455 0 .838-.05 1.149-.1499.311-.111.561-.2276.75-.3497v-4.7456h3.013V33h-3.013Zm5.337 0V21.3441h8.493v2.2979h-5.495v2.2812h4.995v2.1647h-4.995v2.6142h5.495V33h-8.493Zm13.48 0v-9.1915h-3.58v-2.4644h10.157v2.4644h-3.58V33h-2.997Zm8.083 0V21.3441h2.997v3.8631h1.415c1.621 0 2.814.3497 3.58 1.049.777.6994 1.166 1.6485 1.166 2.8474 0 1.1989-.389 2.148-1.166 2.8474-.766.6993-1.959 1.049-3.58 1.049h-4.412Zm2.997-2.4644h1.082c.699 0 1.205-.1332 1.515-.3996.311-.2664.467-.6106.467-1.0324 0-.4218-.156-.766-.467-1.0324-.31-.2664-.816-.3996-1.515-.3996h-1.082v2.864ZM142.786 33V21.3441h2.998V33h-2.998Zm5.327 0V21.3441h4.746c1.088 0 1.982.161 2.681.4829.699.3108 1.215.766 1.548 1.3654.345.5883.517 1.2988.517 2.1314 0 .8214-.172 1.5319-.517 2.1313-.333.5995-.849 1.0602-1.548 1.3821-.699.3108-1.593.4662-2.681.4662h-1.748V33h-2.998Zm2.998-6.161h1.415c.766 0 1.304-.1276 1.615-.3829.311-.2554.466-.6328.466-1.1323 0-.4996-.155-.877-.466-1.1323-.311-.2553-.849-.383-1.615-.383h-1.415v3.0305ZM159.268 33V21.3441h8.493v2.2979h-5.495v2.2812h4.995v2.1647h-4.995v2.6142h5.495V33h-8.493Zm9.654 0 3.797-6.0777-3.63-5.5782h3.313l2.282 3.5301 2.314-3.5301h3.247l-3.613 5.5449 3.78 6.111h-3.347l-2.431-4.0796L172.203 33h-3.281Zm17.23 0V21.3441h2.997v4.6124h.833l3.563-4.6124h3.264l-4.496 5.445L196.975 33h-3.497l-3.496-4.9454h-.833V33h-2.997Zm17.327.2165c-.755 0-1.477-.111-2.165-.3331-.688-.222-1.293-.5717-1.815-1.049-.521-.4773-.932-1.0934-1.232-1.8483-.3-.7659-.45-1.6762-.45-2.7308v-.333c0-1.0213.15-1.8983.45-2.6309.3-.7327.711-1.3321 1.232-1.7983.522-.4663 1.127-.8104 1.815-1.0324.688-.222 1.41-.3331 2.165-.3331.777 0 1.504.1111 2.181.3331s1.277.5661 1.799 1.0324c.521.4662.932 1.0656 1.232 1.7983.299.7326.449 1.6096.449 2.6309v.333c0 1.0546-.15 1.9649-.449 2.7308-.3.7549-.711 1.371-1.232 1.8483-.522.4773-1.122.827-1.799 1.049-.677.2221-1.404.3331-2.181.3331Zm-.017-2.4977c.455 0 .877-.0999 1.266-.2997.388-.211.699-.5606.932-1.0491.244-.4995.367-1.2044.367-2.1147v-.333c0-.8659-.123-1.5375-.367-2.0148-.233-.4774-.544-.8104-.932-.9991-.389-.1887-.811-.2831-1.266-.2831-.433 0-.843.0944-1.232.2831-.388.1887-.705.5217-.949.9991-.244.4773-.366 1.1489-.366 2.0148v.333c0 .9103.122 1.6152.366 2.1147.244.4885.561.8381.949 1.0491.389.1998.799.2997 1.232.2997ZM211.047 33V21.3441h2.998v4.4293h4.329v-4.4293h2.997V33h-2.997v-4.7623h-4.329V33h-2.998Zm12.651 0V21.3441h8.493v2.2979h-5.495v2.2812h4.995v2.1647h-4.995v2.6142h5.495V33h-8.493Zm10.408 0V21.3441h2.997v6.9935l4.579-6.9935h2.747V33h-2.997v-6.9935L236.853 33h-2.747Zm5.161-12.3053c-.777 0-1.415-.1054-1.914-.3164-.489-.222-.85-.5439-1.083-.9657-.222-.4219-.333-.9492-.333-1.5819h2.431c0 .4662.067.7826.2.9491.144.1554.377.2331.699.2331.322 0 .55-.0777.683-.2331.144-.1665.217-.4829.217-.9491h2.431c0 .6327-.117 1.16-.35 1.5819-.222.4218-.577.7437-1.066.9657-.488.211-1.126.3164-1.915.3164Z"/>
</svg>